<?xml version="1.0"?><svg version="1.1" id="圖層_1" xmlns="http://www.w3.org/2000/svg" x="0" y="0" viewBox="0 0 100 100" xml:space="preserve"><ellipse cx="50" cy="66.6" rx="40" ry="11.8" stroke="#333" stroke-width="3" stroke-miterlimit="10" fill="#f5e6c8" stroke-linecap="round" stroke-linejoin="round"/><path d="M77.9 58.1c-5 11-50.8 11-55.9 0-2-4.3-3.1-9.1-3.1-14.2 0-18.1 13.1-22.3 30.2-22.3S81 25.8 81 43.9c0 5.1-1.1 9.9-3.1 14.2z" stroke="#333" stroke-width="3" stroke-miterlimit="10" fill="#f5e6c8" stroke-linecap="round" stroke-linejoin="round"/><path d="M50 55.9c-11.2 0-21.5-1.5-30.1-4.2.5 2.2 1.2 4.4 2.2 6.4 5 11 50.8 11 55.9 0 .9-2 1.6-4.2 2.2-6.4-8.7 2.6-19 4.2-30.2 4.2z" fill="#e15b64" stroke-linecap="round" stroke-linejoin="round" stroke="#333" stroke-width="3" stroke-miterlimit="10"/><metadata xmlns:d="https://loading.io/stock/">
<d:name>hats</d:name>
<d:tags>hats,round crown,cloche hats,dome hat,sun hat,bowler hat</d:tags>
<d:license>by</d:license>
<d:slug>9lx048</d:slug>
</metadata></svg>