<?xml version="1.0"?><svg version="1.1" id="圖層_1" xmlns="http://www.w3.org/2000/svg" x="0" y="0" viewBox="0 0 100 100" xml:space="preserve"><path d="M88.6 48.4c-.4-3-1.3-5.9-2.8-8.4-.1-.2-.2-.3-.3-.5-4-6.7-9.2-12.6-14.1-16.8l-.6-.5c-1.6-1.3-3.1-2.4-4.6-3.3h-5.7c0 14.4-20.7 14.4-20.7 0h-6c-1.5.9-3 2-4.6 3.3l-.6.5c-4.9 4.2-10.1 10.2-14.1 16.8-.1.2-.2.3-.3.5-1.5 2.5-2.4 5.4-2.8 8.4L7.5 78.3l10.7 2.6 6.4-29.3 4.8-5.2 1.2 39.5h38.7l1.2-39.5 4.8 5.2 6.4 29.3 10.7-2.6-3.8-29.9z" fill="#a0c8d7" stroke="#333" stroke-width="3" stroke-miterlimit="10"/><path d="M62.4 18.8c0 .1-24.6-.1-24.6 0h0c.1 17.1 24.6 17.1 24.6 0z" fill="#666" stroke="#333" stroke-width="3" stroke-miterlimit="10"/><g><path d="M64.2 15c-.2-.5-.7-.9-1.3-.9H37c-.6 0-1.1.3-1.3.9l-1.6 4.1 5.4 19.3 8.5-9.1c-3.2-1.1-5.2-5.1-7-10.5h17.8c-1.8 5.3-3.8 9.3-7 10.5l8.5 9.1 5.4-19.3-1.5-4.1z" fill="#e0e0e0" stroke="#333" stroke-width="3" stroke-miterlimit="10"/><circle cx="50" cy="45.6" r="3.8" fill="#fff" stroke="#333" stroke-width="3" stroke-miterlimit="10"/><circle cx="50" cy="59.6" r="3.8" fill="#fff" stroke="#333" stroke-width="3" stroke-miterlimit="10"/><circle cx="50" cy="73.6" r="3.8" fill="#fff" stroke="#333" stroke-width="3" stroke-miterlimit="10"/></g><metadata xmlns:d="https://loading.io/stock/">
<d:name>long sleeve</d:name>
<d:tags>long sleeve,sweatshirt,cloth,hoodie,caftan,polo</d:tags>
<d:license>by</d:license>
<d:slug>e99453</d:slug>
</metadata></svg>