<?xml version="1.0"?><svg version="1.1" id="圖層_1" xmlns="http://www.w3.org/2000/svg" x="0" y="0" viewBox="0 0 100 100" xml:space="preserve"><path d="M81.5 54.9c-5.6-4.5-9.3-12-9.3-20.5 0-5 1.3-9.7 3.5-13.7 1.2-2 .2-4.6-2-5.4L64.8 12c-2.1 4.8-27.7 4.8-29.8 0l-8.9 3.3c-2.2.8-3.1 3.4-2 5.4 2.2 3.9 3.5 8.6 3.5 13.7 0 8.5-3.7 16-9.3 20.5-1.4 1.1-2.1 2.8-2 4.5l1.1 18.7c.2 4 3.3 7.3 7.4 7.7l15.9 1.7c4.9.5 13.4.5 18.3 0l16-1.7c4-.4 7.1-3.7 7.4-7.7l1.1-18.7c.1-1.7-.7-3.4-2-4.5z" fill="#e15b64" stroke-linecap="round" stroke-linejoin="round" stroke="#333" stroke-width="3" stroke-miterlimit="10"/><path d="M35.1 12.4l-8.9 3.3c-2.2.8-3.1 3.4-2 5.4 2.2 3.9 3.5 8.6 3.5 13.7 0 8.5-3.7 16-9.3 20.5-1.4 1.1-2.1 2.8-2 4.5l1.1 18.7c.2 4 3.3 7.3 7.4 7.7l15.9 1.7c4.9.5 9.1-3.3 9.1-8.2v-28L40 15c-.5-2.2-2.8-3.4-4.9-2.6z" fill="#f8b26a" stroke="#333" stroke-width="3" stroke-linecap="round" stroke-linejoin="round" stroke-miterlimit="10"/><path d="M64.9 12.4l8.9 3.3c2.2.8 3.1 3.4 2 5.4-2.2 3.9-3.5 8.6-3.5 13.7 0 8.5 3.7 16 9.3 20.5 1.4 1.1 2.1 2.8 2 4.5l-1.1 18.7c-.2 4-3.3 7.3-7.4 7.7l-15.9 1.7c-4.9.5-9.1-3.3-9.1-8.2v-28L60 15c.5-2.2 2.8-3.4 4.9-2.6z" fill="#f8b26a" stroke="#333" stroke-width="3" stroke-linecap="round" stroke-linejoin="round" stroke-miterlimit="10"/><circle cx="60.9" cy="59.7" r="4.2" fill="#f5e169" stroke="#333" stroke-width="3" stroke-linecap="round" stroke-linejoin="round" stroke-miterlimit="10"/><circle cx="60.9" cy="74.7" r="4.2" fill="#f5e169" stroke="#333" stroke-width="3" stroke-linecap="round" stroke-linejoin="round" stroke-miterlimit="10"/><circle cx="38.4" cy="59.7" r="4.2" fill="#f5e169" stroke="#333" stroke-width="3" stroke-linecap="round" stroke-linejoin="round" stroke-miterlimit="10"/><circle cx="38.4" cy="74.7" r="4.2" fill="#f5e169" stroke="#333" stroke-width="3" stroke-linecap="round" stroke-linejoin="round" stroke-miterlimit="10"/><metadata xmlns:d="https://loading.io/stock/">
<d:name>vest</d:name>
<d:tags>vest,bodysuit,cloth,garment,tank top</d:tags>
<d:license>by</d:license>
<d:slug>k16xdd</d:slug>
</metadata></svg>