<?xml version="1.0"?><svg version="1.1" id="圖層_1" xmlns="http://www.w3.org/2000/svg" x="0" y="0" viewBox="0 0 100 100" xml:space="preserve"><path d="M62.7 33.4c-8.5 3.4-17 3.4-25.4 0-1.9-.8-3.9.9-3.5 2.9 3.5 19.8 29.1 19.8 32.5-.1.3-2-1.7-3.5-3.6-2.8z" stroke="#333" stroke-width="3" stroke-miterlimit="10" fill="#e0e0e0" stroke-linecap="round" stroke-linejoin="round"/><g><path stroke-linecap="round" stroke-linejoin="round" fill="none" stroke="#333" stroke-width="3" stroke-miterlimit="10" d="M50 30.2l-27.4 18"/><path stroke-linecap="round" stroke-linejoin="round" fill="none" stroke="#333" stroke-width="3" stroke-miterlimit="10" d="M50 30.2l27.4 18"/><path d="M58.8 16.3c0-4.9-3.9-8.8-8.8-8.8s-8.8 3.9-8.8 8.8 3.9 8.8 8.8 8.8v5.1" stroke-linecap="round" stroke-linejoin="round" fill="none" stroke="#333" stroke-width="3" stroke-miterlimit="10"/></g><path d="M73.2 34.2c-1.7-.6-3.4-1.2-5.2-1.7-1.3-.4-2.6-.7-4-.9 0 21.9-28 21.9-28 0-1.3.3-2.7.6-4 .9-1.8.5-3.5 1-5.2 1.7-6.6 2.5-12.8 6.1-18.4 11l7.3 14.9 11.1-5.5v37.9h46.4V54.6l11.1 5.5 7.3-14.9c-5.6-4.9-11.8-8.5-18.4-11z" stroke="#333" stroke-width="3" stroke-miterlimit="10" fill="#fff" stroke-linecap="round" stroke-linejoin="round"/><metadata xmlns:d="https://loading.io/stock/">
<d:name>t-shirt</d:name>
<d:tags>t-shirt,clothing,tee,wear,bodysuit,tunic,polo,hanger</d:tags>
<d:license>by</d:license>
<d:slug>u4lnqr</d:slug>
</metadata></svg>