<?xml version="1.0"?><svg version="1.1" id="圖層_1" xmlns="http://www.w3.org/2000/svg" x="0" y="0" viewBox="0 0 100 100" xml:space="preserve"><path d="M82 29.6H18l-5.9 43.5c-.3 2.1 1 4 3.1 4.6l2.2.6c8 2 16.3 3 24.6 3h.4v-2.2c0-11 3.5-13.9 7.7-13.9s7.7 3 7.7 13.9v2.2h0c7.9 0 15.7-.9 23.3-2.7l3.8-.9c2.1-.5 3.4-2.5 3.1-4.6l-6-43.5z" stroke-linecap="round" stroke-linejoin="round" fill="#77a4bd" stroke="#333" stroke-width="3" stroke-miterlimit="10"/><path d="M19.9 78.8c2.6.6 5.2 1.1 7.9 1.4l5.7-50.6h-8.1l-5.5 49.2z" stroke="#333" stroke-width="3" stroke-miterlimit="10" fill="#fdfdfd" stroke-linecap="round" stroke-linejoin="round"/><path d="M78.7 18.8H21.3c-1.8 0-3.2 1.5-3.2 3.2v7.6h64V22a3.4 3.4 0 0 0-3.4-3.2z" fill="#a0c8d7" stroke="#333" stroke-width="3" stroke-linecap="round" stroke-linejoin="round" stroke-miterlimit="10"/><path stroke-linecap="round" stroke-linejoin="round" fill="none" stroke="#333" stroke-width="3" stroke-miterlimit="10" d="M50 18.8v6.7"/><path stroke-linecap="round" stroke-linejoin="round" fill="none" stroke="#333" stroke-width="3" stroke-miterlimit="10" d="M42 18.8v6.7"/><path stroke-linecap="round" stroke-linejoin="round" fill="none" stroke="#333" stroke-width="3" stroke-miterlimit="10" d="M34 18.8v6.7"/><path stroke-linecap="round" stroke-linejoin="round" fill="none" stroke="#333" stroke-width="3" stroke-miterlimit="10" d="M26 18.8v6.7"/><path stroke-linecap="round" stroke-linejoin="round" fill="none" stroke="#333" stroke-width="3" stroke-miterlimit="10" d="M58 18.8v6.7"/><path stroke-linecap="round" stroke-linejoin="round" fill="none" stroke="#333" stroke-width="3" stroke-miterlimit="10" d="M66 18.8v6.7"/><path stroke-linecap="round" stroke-linejoin="round" fill="none" stroke="#333" stroke-width="3" stroke-miterlimit="10" d="M74 18.8v6.7"/><metadata xmlns:d="https://loading.io/stock/">
<d:name>sport pants</d:name>
<d:tags>sport pants,sweatpants,trunks,trousers,shorts,briefs,clothing</d:tags>
<d:license>by</d:license>
<d:slug>7abljn</d:slug>
</metadata></svg>