<?xml version="1.0"?><svg version="1.1" id="圖層_1" xmlns="http://www.w3.org/2000/svg" x="0" y="0" viewBox="0 0 100 100" xml:space="preserve"><path stroke-linecap="round" stroke-linejoin="round" fill="#666" stroke="#333" stroke-width="3" stroke-miterlimit="10" d="M57.4 20.4H42.6l6.8 19.9z"/><path fill="#f8b26a" stroke="#333" stroke-width="3" stroke-linecap="round" stroke-linejoin="round" stroke-miterlimit="10" d="M37.6 20.4l5.4-2.6h13.7l5.4 2.6-.5 2.7-23.5.1z"/><path stroke="#333" stroke-width="3" stroke-miterlimit="10" fill="#f47e60" stroke-linecap="round" stroke-linejoin="round" d="M89.2 71.6L73.9 28.2l-9.3-3.6h0l-8.3-4.2-10 25v36.8h24.5L70 45.3l7.8 30.5z"/><path fill="#f8b26a" stroke="#333" stroke-width="3" stroke-linecap="round" stroke-linejoin="round" stroke-miterlimit="10" d="M42.8 54.9l14.7-7.8 4.6-26.7-5.4-2.6z"/><path stroke="#333" stroke-width="3" stroke-miterlimit="10" fill="#f47e60" stroke-linecap="round" stroke-linejoin="round" d="M55.6 82.2l-.2-27.3-11.7-34.5-8.3 4.2h0l-9.3 3.6-15.3 43.4 11.4 4.2L30 45.3l-.8 36.9z"/><path fill="#f8b26a" stroke="#333" stroke-width="3" stroke-linecap="round" stroke-linejoin="round" stroke-miterlimit="10" d="M55.4 54.9l-13.2-7.8-4.6-26.7 5.4-2.6z"/><path stroke="#333" stroke-width="3" stroke-miterlimit="10" fill="#e0e0e0" stroke-linecap="round" stroke-linejoin="round" d="M92.5 74.5l-14.8 5.9-2.3-9.3 13.8-4.9z"/><path stroke="#333" stroke-width="3" stroke-miterlimit="10" fill="#e0e0e0" stroke-linecap="round" stroke-linejoin="round" d="M7.5 74.5l14.8 5.9 2.3-9.3-13.8-4.9z"/><circle cx="47.2" cy="60.5" r="2.9" stroke="#333" stroke-width="3" stroke-miterlimit="10" fill="#e0e0e0" stroke-linecap="round" stroke-linejoin="round"/><circle cx="47.2" cy="73" r="2.9" stroke="#333" stroke-width="3" stroke-miterlimit="10" fill="#e0e0e0" stroke-linecap="round" stroke-linejoin="round"/><metadata xmlns:d="https://loading.io/stock/">
<d:name>coat</d:name>
<d:tags>coat,overcoat,topcoat,windbreaker,paletot,jacket</d:tags>
<d:license>by</d:license>
<d:slug>lxs1e4</d:slug>
</metadata></svg>