<?xml version="1.0"?><svg version="1.1" id="圖層_1" xmlns="http://www.w3.org/2000/svg" x="0" y="0" viewBox="0 0 100 100" xml:space="preserve"><path stroke-linecap="round" stroke-linejoin="round" fill="#666" stroke="#333" stroke-width="3" stroke-miterlimit="10" d="M42.4 28l7 20.6L57.6 28h0-15.2z"/><g><path stroke-linecap="round" stroke-linejoin="round" fill="none" stroke="#333" stroke-width="3" stroke-miterlimit="10" d="M49.7 26.9L25.5 41.6"/><path stroke-linecap="round" stroke-linejoin="round" fill="none" stroke="#333" stroke-width="3" stroke-miterlimit="10" d="M49.7 26.9l24.5 14.7"/><path d="M55.3 15.7c0-3.1-2.5-5.5-5.5-5.5-3.1 0-5.5 2.5-5.5 5.5s2.5 5.5 5.5 5.5v5.7" stroke-linecap="round" stroke-linejoin="round" fill="none" stroke="#333" stroke-width="3" stroke-miterlimit="10"/></g><g><path stroke="#333" stroke-width="3" stroke-miterlimit="10" fill="#f47e60" stroke-linecap="round" stroke-linejoin="round" d="M89.2 79.3L73.9 35.8l-9.3-3.5h0L56.3 28l-10 25v36.9h24.5l-.8-37 7.8 30.5z"/><path fill="#f8b26a" stroke="#333" stroke-width="3" stroke-linecap="round" stroke-linejoin="round" stroke-miterlimit="10" d="M42.8 62.5l14.7-7.8L62.1 28l-5.4-2.6z"/><path stroke="#333" stroke-width="3" stroke-miterlimit="10" fill="#e0e0e0" stroke-linecap="round" stroke-linejoin="round" d="M92.5 82.1L77.7 88l-2.3-9.3 13.8-4.8z"/></g><g><path stroke="#333" stroke-width="3" stroke-miterlimit="10" fill="#f47e60" stroke-linecap="round" stroke-linejoin="round" d="M55.6 89.9l-.2-27.4L43.7 28l-8.3 4.3h0l-9.3 3.5-15.3 43.5 11.4 4.1L30 52.9l-.8 37z"/><path fill="#f8b26a" stroke="#333" stroke-width="3" stroke-linecap="round" stroke-linejoin="round" stroke-miterlimit="10" d="M55.4 62.5l-13.2-7.8L37.6 28l5.4-2.6z"/><path stroke="#333" stroke-width="3" stroke-miterlimit="10" fill="#e0e0e0" stroke-linecap="round" stroke-linejoin="round" d="M7.5 82.1L22.3 88l2.3-9.3-13.8-4.8z"/><circle cx="47.2" cy="68.1" r="2.9" stroke="#333" stroke-width="3" stroke-miterlimit="10" fill="#e0e0e0" stroke-linecap="round" stroke-linejoin="round"/><circle cx="47.2" cy="80.7" r="2.9" stroke="#333" stroke-width="3" stroke-miterlimit="10" fill="#e0e0e0" stroke-linecap="round" stroke-linejoin="round"/></g><metadata xmlns:d="https://loading.io/stock/">
<d:name>coat</d:name>
<d:tags>coat,overcoat,topcoat,windbreaker,paletot,jacket</d:tags>
<d:license>by</d:license>
<d:slug>mk6896</d:slug>
</metadata></svg>