<?xml version="1.0"?><svg version="1.1" id="圖層_1" xmlns="http://www.w3.org/2000/svg" x="0" y="0" viewBox="0 0 100 100" xml:space="preserve"><path d="M61.6 92.5l17.3-.3L74 8.5v-1H26v1l-4.9 83.7 17.3.3 8.1-54.9c.2-1.7 1.7-3 3.5-3h0c1.7 0 3.2 1.3 3.5 3l8.1 54.9z" fill="#a0c8d7" stroke="#333" stroke-width="3" stroke-linecap="round" stroke-linejoin="round" stroke-miterlimit="10"/><path d="M53 35.3h-4.3c-2 0-3.7-1.6-3.7-3.7V12.1h8v23.2z" fill="#a0c8d7" stroke="#333" stroke-width="3" stroke-linecap="round" stroke-linejoin="round" stroke-miterlimit="10"/><path stroke-linecap="round" stroke-linejoin="round" fill="#77a4bd" stroke="#333" stroke-width="3" stroke-miterlimit="10" d="M26 7.5v1l-.4 8.2h48.8L74 8.5v-1z"/><path d="M38.9 18.3c0 6.1-3.8 9.2-12.6 9.2" stroke-linecap="round" stroke-linejoin="round" fill="none" stroke="#333" stroke-width="3" stroke-miterlimit="10"/><path d="M61.1 18.3c0 6.1 3.8 9.2 12.6 9.2" stroke-linecap="round" stroke-linejoin="round" fill="none" stroke="#333" stroke-width="3" stroke-miterlimit="10"/><metadata xmlns:d="https://loading.io/stock/">
<d:name>pants</d:name>
<d:tags>pants,trousers,slacks,clothing,jeans,straights,crops</d:tags>
<d:license>by</d:license>
<d:slug>h4142g</d:slug>
</metadata></svg>