<?xml version="1.0"?><svg version="1.1" id="圖層_1" xmlns="http://www.w3.org/2000/svg" x="0" y="0" viewBox="0 0 100 100" xml:space="preserve"><path d="M62.2 30.8c0 .1-24.1-.1-24.1 0 0 16.8 24.1 16.8 24.1 0z" fill="#666" stroke="#333" stroke-width="3" stroke-miterlimit="10"/><g><path stroke-linecap="round" stroke-linejoin="round" fill="none" stroke="#333" stroke-width="3" stroke-miterlimit="10" d="M50 34L26.3 49.5"/><path stroke-linecap="round" stroke-linejoin="round" fill="none" stroke="#333" stroke-width="3" stroke-miterlimit="10" d="M50 34l23.7 15.5"/><path d="M57.6 15.1c0-4.2-3.4-7.6-7.6-7.6s-7.6 3.4-7.6 7.6 3.4 7.6 7.6 7.6V34" stroke-linecap="round" stroke-linejoin="round" fill="none" stroke="#333" stroke-width="3" stroke-miterlimit="10"/></g><g><path d="M85.6 58c-.4-2.8-1.2-5.4-2.6-7.7-.1-.1-.2-.3-.2-.4-3.7-6.1-8.5-11.6-13-15.5l-.6-.5c-1.4-1.2-2.9-2.2-4.2-3h-5.3c0 13.3-19.1 13.3-19.1 0H35c-1.3.8-2.7 1.8-4.2 3l-.6.5c-4.5 3.9-9.3 9.4-13 15.5-.1.1-.2.3-.2.4-1.4 2.3-2.2 5-2.6 7.7l-3.5 27.5 9.8 2.4 5.9-27 4.5-4.8 1.1 36.4h35.6L69 56.1l4.5 4.8 5.9 27 9.8-2.4L85.6 58z" fill="#a0c8d7" stroke="#333" stroke-width="3" stroke-miterlimit="10"/><path d="M63.1 27.2c-.2-.5-.7-.8-1.2-.8H38c-.5 0-1 .3-1.2.8L35.4 31l5 17.8 7.8-8.4c-3-1-4.8-4.7-6.4-9.6h16.4c-1.7 4.9-3.5 8.6-6.4 9.6l7.8 8.4 5-17.8-1.5-3.8z" fill="#e0e0e0" stroke="#333" stroke-width="3" stroke-miterlimit="10"/></g><metadata xmlns:d="https://loading.io/stock/">
<d:name>long sleeve</d:name>
<d:tags>long sleeve,sweatshirt,cloth,hoodie,caftan,polo</d:tags>
<d:license>by</d:license>
<d:slug>emey9q</d:slug>
</metadata></svg>